<svg width="180" height="213" viewBox="0 0 180 213" fill="none" xmlns="http://www.w3.org/2000/svg">
<path d="M97.2 151.5V151.2C87.9 149.1 80.1 143.4 75.9 135.9C70.8 125.4 69.3 98.4 72 56.4C74.7 12.3 75 10.5 81.3 6.00002C83.7 4.20002 85.8 3.90001 94.8 3.60001C108 3.00002 114.9 4.80001 118.5 9.30001C120.6 11.7 120.9 13.2 120.9 18.3C120.9 21.6 120.3 28.5 119.7 33.6C116.4 54.9 115.2 95.7 117.6 100.5C119.1 103.5 123.3 104.1 125.1 101.1C127.8 97.2 128.7 81.3 128.4 48.9C128.1 19.5 128.1 18 130.2 13.8C134.1 5.70002 139.2 3.00002 153 3.00002C163.5 3.00002 168.6 4.20002 172.5 8.10001C177.9 13.2 178.2 15.3 176.4 74.1C175.2 116.7 174.6 121.2 169.8 129.3C167.1 134.4 160.5 140.7 154.5 143.4C139.8 150.9 112.2 154.8 97.2 151.5ZM165 160.8C174.6 165.3 179.7 181.5 175.5 195.3C172.5 205.2 163.2 210 142.8 211.5C129.6 212.7 45 212.7 36.3 211.5C14.7 208.8 6.3 202.2 4.2 186.3C3.6 182.7 3 159.9 2.7 135.6C2.4 111.3 1.8 84.6 1.2 76.2C0.6 67.8 1.11759e-07 52.2 1.11759e-07 42C1.11759e-07 24.3 1.11759e-07 22.5 2.1 17.4C4.8 10.5 8.1 7.80001 17.7 5.40001C38.1 2.31266e-05 53.4 5.70002 57.9 20.1C60 27.3 60 45.3 57.9 69C57 78 55.5 93.3 54.9 102.6C53.1 120.3 52.5 159.9 53.7 164.1C54.3 166.5 55.2 166.8 60.9 168.3C79.5 172.5 102.9 170.7 135.3 162.6C151.2 158.7 159.6 158.1 165 160.8Z" fill="#2D6A2D"/>
</svg>
